<?xml version="1.0" encoding="utf-8"?>
<svg viewBox="0 0 113 28" xmlns="http://www.w3.org/2000/svg" xmlns:xlink="http://www.w3.org/1999/xlink">
  <g shape-rendering="crispEdges">
    <rect width="64.25" height="28" fill="#555"/>
    <rect x="64.25" width="48.75" height="28" fill="#007ec6"/>
  </g>
  <g fill="#fff" text-anchor="middle" font-family="Verdana,Geneva,DejaVu Sans,sans-serif" text-rendering="geometricPrecision" font-size="100">
    <a target="_blank" xlink:href="https://github.com/othneildrew/Best-README-Template/fork">
      <rect width="64.25" height="28" fill="rgba(0,0,0,0)"/>
      <text transform="scale(.1)" x="321.25" y="175" textLength="402.5" fill="#fff" style="white-space: pre;">FORKS</text>
    </a>
    <a target="_blank" xlink:href="https://github.com/othneildrew/Best-README-Template/network">
      <rect width="48.75" height="28" x="64.25" fill="rgba(0,0,0,0)"/>
      <path fill="#c2cde7" d="M 93.811 11.72 L 95.784 12.317 C 96.611 12.569 97.556 12.345 98.057 11.775 L 102.464 6.754 C 102.732 6.458 102.684 6.056 102.349 5.803 L 99.438 3.55 C 99.114 3.3 98.606 3.263 98.227 3.462 L 91.762 6.854 C 91.035 7.236 90.74 7.953 91.048 8.59 L 91.805 10.16" style=""/>
      <path fill="#d6dff2" d="M 94.741 12.001 L 95.784 12.317 C 96.611 12.569 97.556 12.345 98.057 11.775 L 102.464 6.754 C 102.732 6.458 102.684 6.056 102.349 5.803 L 99.438 3.55 C 99.114 3.3 98.606 3.263 98.227 3.462 L 91.762 6.854 C 91.035 7.236 90.74 7.953 91.048 8.59 L 91.442 9.408 C 91.681 9.902 92.053 10.352 92.534 10.725 L 93.121 11.178 C 93.582 11.535 94.132 11.814 94.741 12.001 Z" style=""/>
      <path fill="#c2cde7" d="M 91.792 10.157 L 77.764 20.066 C 76.963 20.633 76.934 21.603 77.701 22.197 L 78.25 22.621 C 79.019 23.214 80.271 23.193 81.005 22.572 L 93.811 11.72" style=""/>
      <path fill="#d6dff2" d="M 90.428 13.523 L 85.035 15.606 L 78.818 10.795 C 76.496 8.999 75.92 6.258 77.388 3.986 C 77.507 3.809 77.811 3.77 77.998 3.908 L 90.428 13.523 Z" style=""/>
      <path fill="#f9e3ae" d="M 87.05 15.085 L 96.155 22.58 C 96.892 23.186 98.129 23.201 98.89 22.613 L 99.476 22.16 C 100.238 21.57 100.216 20.609 99.429 20.04 L 90.428 13.523" style=""/>
      <path fill="#f6d397" d="M 98.895 22.613 L 99.372 22.245 L 88.956 14.208 L 87.05 15.085 L 96.155 22.58 C 96.892 23.188 98.133 23.203 98.895 22.613 Z" style=""/>
      <path fill="#8d6c9f" d="M 95.626 12.66 C 95.906 12.745 96.204 12.789 96.503 12.788 C 97.29 12.786 98.025 12.483 98.467 11.978 L 102.874 6.958 C 103.259 6.517 103.188 5.928 102.701 5.553 L 99.757 3.289 C 99.273 2.915 98.513 2.86 97.946 3.157 L 91.481 6.54 C 90.571 7.017 90.2 7.915 90.585 8.712 L 91.234 10.047 L 88.822 11.749 L 78.341 3.64 C 77.926 3.32 77.227 3.408 76.963 3.812 C 75.398 6.226 76.008 9.143 78.473 11.053 L 83.887 15.241 L 77.445 19.793 C 76.442 20.502 76.407 21.716 77.369 22.459 L 77.917 22.883 C 78.364 23.227 78.968 23.42 79.599 23.42 L 79.657 23.42 C 80.306 23.409 80.924 23.191 81.362 22.82 L 88.481 16.789 L 95.807 22.831 C 96.249 23.195 96.862 23.406 97.508 23.413 L 97.533 23.413 C 98.163 23.413 98.767 23.219 99.215 22.874 L 99.8 22.422 C 100.754 21.684 100.728 20.483 99.743 19.771 L 91.776 13.994 L 93.946 12.151 L 95.626 12.66 Z M 83.353 12.218 C 83.166 12.074 82.867 12.074 82.682 12.218 L 82.009 12.738 L 81 11.956 L 81.671 11.436 C 81.91 11.221 81.756 10.886 81.397 10.834 C 81.255 10.813 81.109 10.844 81 10.916 L 80.327 11.436 L 79.318 10.655 L 79.989 10.134 C 80.228 9.919 80.074 9.584 79.715 9.533 C 79.573 9.512 79.427 9.542 79.318 9.615 L 78.664 10.109 C 78.356 9.818 78.085 9.503 77.86 9.169 L 78.298 8.83 C 78.537 8.615 78.384 8.279 78.022 8.228 C 77.882 8.207 77.735 8.237 77.625 8.31 L 77.459 8.439 C 76.839 7.064 76.946 5.555 77.754 4.24 L 89.622 13.419 L 85.44 15.037 C 85.257 15.107 85.035 15.08 84.892 14.967 L 84.368 14.562 L 85.039 14.042 C 85.279 13.827 85.125 13.492 84.765 13.44 C 84.624 13.42 84.477 13.449 84.368 13.523 L 83.696 14.042 L 82.686 13.261 L 83.357 12.741 C 83.544 12.596 83.543 12.361 83.353 12.218 Z M 80.656 22.322 C 80.106 22.788 79.164 22.805 78.588 22.359 L 78.04 21.935 C 77.463 21.489 77.485 20.76 78.088 20.335 L 84.629 15.712 C 85.02 15.857 85.473 15.857 85.864 15.712 L 86.735 15.373 L 87.818 16.265 L 80.656 22.322 Z M 99.561 21.098 C 99.568 21.398 99.417 21.686 99.142 21.898 L 98.556 22.352 C 97.985 22.793 97.056 22.782 96.503 22.325 L 87.627 15.019 L 90.342 13.969 L 99.105 20.309 C 99.387 20.514 99.551 20.799 99.557 21.098 L 99.561 21.098 Z M 90.757 13.254 L 89.495 12.276 L 92.11 10.434 C 92.146 10.405 92.177 10.373 92.2 10.338 L 92.2 10.315 C 92.214 10.27 92.23 10.225 92.243 10.179 C 92.243 10.179 92.243 10.157 92.243 10.145 C 92.251 10.111 92.251 10.074 92.243 10.039 L 91.476 8.457 C 91.244 7.979 91.467 7.438 92.015 7.152 L 98.485 3.765 C 98.675 3.665 98.928 3.684 99.09 3.809 L 99.566 4.177 L 94.85 7.827 C 94.571 8.012 94.656 8.361 95.001 8.454 C 95.187 8.505 95.393 8.463 95.522 8.346 L 100.215 4.697 L 100.868 5.203 L 96.151 8.852 C 95.871 9.036 95.956 9.385 96.302 9.479 C 96.489 9.53 96.695 9.487 96.822 9.372 L 101.539 5.722 L 102.015 6.091 C 102.165 6.213 102.188 6.398 102.073 6.54 L 97.661 11.565 C 97.285 11.993 96.577 12.163 95.955 11.974 L 93.983 11.377 C 93.943 11.373 93.903 11.373 93.864 11.377 L 93.797 11.377 C 93.738 11.387 93.679 11.398 93.619 11.41 L 93.568 11.44 C 93.532 11.455 93.498 11.474 93.469 11.495 L 91.085 13.511 L 90.757 13.254 Z" style=""/>
      <path fill="#8d6c9f" d="M 92.767 17.6 L 93.559 18.212 C 93.837 18.396 94.27 18.278 94.337 17.999 C 94.363 17.889 94.324 17.776 94.23 17.692 L 93.439 17.08 C 93.161 16.895 92.729 17.013 92.662 17.292 C 92.635 17.402 92.673 17.515 92.767 17.6 Z M 97.789 21.456 C 98.057 21.663 98.515 21.568 98.613 21.285 C 98.658 21.154 98.609 21.014 98.485 20.918 L 95.727 18.783 C 95.448 18.599 95.015 18.716 94.948 18.995 C 94.921 19.105 94.961 19.218 95.054 19.303 L 97.789 21.456 Z" style=""/>
    </a>
  </g>
</svg>