<?xml version="1.0" encoding="utf-8"?>
<svg viewBox="-15.35 3.409 142 28" xmlns="http://www.w3.org/2000/svg">
  <g shape-rendering="crispEdges" transform="matrix(1, 0, 0, 1, -15.350495, 3.408876)">
    <rect width="69.5" height="28" fill="#555"/>
    <rect x="69.5" width="72.5" height="28" fill="#dfb317"/>
  </g>
  <g fill="#fff" text-anchor="middle" font-family="Verdana,Geneva,DejaVu Sans,sans-serif" text-rendering="geometricPrecision" font-size="100" transform="matrix(1, 0, 0, 1, -15.350495, 3.408876)">
    <text transform="scale(.1)" x="347.5" y="175" textLength="455" fill="#fff" style="white-space: pre;">ISSUES</text>
    <text transform="scale(.1)" x="1057.5" y="175" textLength="485" fill="#fff" font-weight="bold" style="white-space: pre;"> </text>
  </g>
  <path fill="#ffeea3" d="M 89.56 27.131 L 89.56 24.459 L 88.693 24.459 C 86.876 24.459 85.398 23.321 85.398 21.921 L 85.398 19.267 L 83.769 18.801 C 83.587 18.749 83.446 18.644 83.372 18.505 C 83.298 18.367 83.304 18.216 83.386 18.08 L 85.398 14.786 L 85.398 14.757 C 85.398 12.847 86.044 11.42 87.318 10.517 L 87.448 10.424 L 87.326 10.326 C 86.712 9.834 86.304 9.339 86.145 9.133 C 86.802 8.771 90.124 7.092 95.12 7.092 C 100.565 7.092 105.164 10.555 105.164 14.655 C 105.164 17.726 103.328 19.225 101.707 20.549 C 100.746 21.334 99.915 22.012 99.622 22.898 L 99.616 22.914 L 99.616 27.131 L 89.56 27.131 Z" style=""/>
  <path fill="#ba9b48" d="M 95.12 7.225 C 97.713 7.225 100.175 7.999 102.057 9.404 C 103.949 10.818 104.991 12.683 104.991 14.655 C 104.991 17.672 103.179 19.152 101.581 20.457 C 100.644 21.222 99.758 21.945 99.453 22.865 L 99.443 22.897 L 99.443 22.931 L 99.443 26.998 L 89.733 26.998 L 89.733 24.593 L 89.733 24.326 L 89.386 24.326 L 88.693 24.326 C 86.971 24.326 85.572 23.247 85.572 21.921 L 85.572 19.359 L 85.572 19.174 L 85.345 19.109 L 83.829 18.676 C 83.693 18.637 83.588 18.559 83.533 18.455 C 83.478 18.351 83.482 18.238 83.543 18.137 L 85.539 14.87 L 85.572 14.817 L 85.572 14.757 C 85.572 12.885 86.199 11.492 87.435 10.615 L 87.696 10.43 L 87.451 10.233 C 86.937 9.821 86.571 9.407 86.378 9.17 C 87.257 8.709 90.447 7.225 95.12 7.225 M 95.12 6.958 C 89.416 6.958 85.918 9.096 85.918 9.096 C 85.918 9.096 86.374 9.755 87.201 10.418 C 86.01 11.262 85.225 12.641 85.225 14.757 L 83.23 18.023 C 83.015 18.374 83.237 18.792 83.709 18.926 L 85.225 19.359 L 85.225 21.921 C 85.225 23.396 86.778 24.593 88.693 24.593 L 89.386 24.593 L 89.386 27.265 L 99.789 27.265 L 99.789 22.931 C 100.556 20.618 105.338 19.602 105.338 14.655 C 105.338 10.404 100.637 6.958 95.12 6.958 Z" style=""/>
  <g transform="matrix(0.346776, 0, 0, 0.267192, 80.37207, 6.424271)" style="">
    <path fill="#4e7ab5" d="M37.049,47.683c-0.146-0.406-0.561-1.844-0.561-3.512c0-5.832,8.025-8.427,8.025-13.131 c0-4.088-4.765-4.308-5.513-4.308c-2.423,0-4.732,1.082-6.927,3.244v-5.634C34.74,22.78,37.504,22,40.366,22 C48.276,22,50,27.114,50,29.976c0,7.585-8.61,9.499-8.61,14.366c0,1.524,0.626,2.951,0.805,3.341H37.049z M39.829,58 c-1.579,0-3.488-1.132-3.488-3.244c0-2.326,2.25-3.268,3.488-3.268c2.336,0,3.463,1.907,3.463,3.268 C43.293,56.848,41.262,58,39.829,58z"/>
  </g>
</svg>