<?xml version="1.0" encoding="utf-8"?>
<svg viewBox="-2.975 3.409 117.25 28" xmlns="http://www.w3.org/2000/svg" xmlns:xlink="http://www.w3.org/1999/xlink">
  <g shape-rendering="crispEdges" transform="matrix(1, 0, 0, 1, -2.975495, 3.408876)">
    <rect width="63.25" height="28" fill="#555"/>
    <rect x="63.25" width="54" height="28" fill="#007ec6"/>
  </g>
  <g fill="#fff" text-anchor="middle" font-family="Verdana,Geneva,DejaVu Sans,sans-serif" text-rendering="geometricPrecision" font-size="100" transform="matrix(1, 0, 0, 1, -2.975495, 3.408876)">
    <a target="_blank" xlink:href="https://github.com/othneildrew/Best-README-Template">
      <rect width="63.25" height="28" fill="rgba(0,0,0,0)"/>
      <text transform="scale(.1)" x="316.25" y="175" textLength="392.5" fill="#fff" style="white-space: pre;">STARS</text>
    </a>
    <a target="_blank" xlink:href="https://github.com/othneildrew/Best-README-Template/stargazers">
      <rect width="54" height="28" x="63.25" fill="rgba(0,0,0,0)"/>
      <text transform="scale(.1)" x="902.5" y="175" textLength="300" fill="#fff" font-weight="bold" style="white-space: pre;"> </text>
    </a>
  </g>
  <path fill="#ffeea3" d="M 78.152 20.008 L 75.78 21.364 L 76.246 18.469 L 74.356 16.41 L 76.974 15.979 L 78.152 13.347 L 79.33 15.98 L 81.948 16.41 L 80.058 18.469 L 80.524 21.364 L 78.152 20.008 Z M 78.49 19.348 L 79.626 19.985 L 79.389 18.622 L 79.326 18.205 L 80.489 16.937 L 78.877 16.672 L 78.152 15.05 L 77.427 16.672 L 75.815 16.937 L 76.978 18.204 L 76.915 18.623 L 76.678 19.985 L 77.813 19.349 L 78.152 19.152 L 78.49 19.348 Z" style=""/>
  <path fill="#ba9b48" d="M 78.152 13.468 L 79.275 15.978 L 79.297 16.029 L 79.347 16.037 L 81.843 16.448 L 80.042 18.411 L 80.005 18.451 L 80.014 18.507 L 80.459 21.266 L 78.196 19.972 L 78.152 19.947 L 78.107 19.972 L 75.845 21.265 L 76.29 18.507 L 76.299 18.45 L 76.262 18.41 L 74.461 16.448 L 76.956 16.037 L 77.006 16.029 L 77.028 15.978 L 78.152 13.468 M 77.394 16.622 L 77.042 16.68 L 75.904 16.867 L 75.71 16.899 L 75.851 17.052 L 76.671 17.946 L 76.926 18.223 L 76.867 18.611 L 76.649 19.866 L 76.611 20.083 L 76.789 19.984 L 77.836 19.396 L 78.152 19.213 L 78.469 19.397 L 79.515 19.984 L 79.693 20.083 L 79.655 19.866 L 79.438 18.614 L 79.378 18.224 L 79.633 17.947 L 80.454 17.052 L 80.594 16.899 L 80.399 16.867 L 79.262 16.68 L 78.909 16.622 L 78.751 16.268 L 78.239 15.124 L 78.152 14.928 L 78.064 15.124 L 77.553 16.268 L 77.394 16.622 M 78.152 13.225 L 76.942 15.93 L 74.252 16.373 L 76.194 18.488 L 75.715 21.462 L 78.152 20.069 L 80.59 21.462 L 80.11 18.488 L 82.051 16.373 L 79.362 15.93 L 78.152 13.225 Z M 76.745 19.887 L 76.963 18.632 L 77.03 18.186 L 76.74 17.869 L 75.919 16.975 L 77.056 16.787 L 77.459 16.721 L 77.64 16.316 L 78.152 15.172 L 78.664 16.316 L 78.845 16.721 L 79.248 16.787 L 80.385 16.975 L 79.564 17.869 L 79.273 18.186 L 79.341 18.632 L 79.559 19.887 L 78.513 19.3 L 78.152 19.091 L 77.791 19.3 L 76.745 19.887 Z" style=""/>
  <path fill="#ffeea3" d="M 99.35 19.532 L 96.978 20.888 L 97.444 17.993 L 95.554 15.934 L 98.172 15.503 L 99.35 12.871 L 100.528 15.504 L 103.146 15.934 L 101.256 17.993 L 101.722 20.888 L 99.35 19.532 Z M 99.688 18.872 L 100.824 19.509 L 100.587 18.146 L 100.524 17.729 L 101.687 16.461 L 100.075 16.196 L 99.35 14.574 L 98.625 16.196 L 97.013 16.461 L 98.176 17.728 L 98.113 18.147 L 97.876 19.509 L 99.011 18.873 L 99.35 18.676 L 99.688 18.872 Z" style=""/>
  <path fill="#ba9b48" d="M 99.35 12.992 L 100.473 15.502 L 100.495 15.553 L 100.545 15.561 L 103.041 15.972 L 101.24 17.935 L 101.203 17.975 L 101.212 18.031 L 101.657 20.79 L 99.394 19.496 L 99.35 19.471 L 99.305 19.496 L 97.043 20.789 L 97.488 18.031 L 97.497 17.974 L 97.46 17.934 L 95.659 15.972 L 98.154 15.561 L 98.204 15.553 L 98.226 15.502 L 99.35 12.992 M 98.592 16.146 L 98.24 16.204 L 97.102 16.391 L 96.908 16.423 L 97.049 16.576 L 97.869 17.47 L 98.124 17.747 L 98.065 18.135 L 97.847 19.39 L 97.809 19.607 L 97.987 19.508 L 99.034 18.92 L 99.35 18.737 L 99.667 18.921 L 100.713 19.508 L 100.891 19.607 L 100.853 19.39 L 100.636 18.138 L 100.576 17.748 L 100.831 17.471 L 101.652 16.576 L 101.792 16.423 L 101.597 16.391 L 100.46 16.204 L 100.107 16.146 L 99.949 15.792 L 99.437 14.648 L 99.35 14.452 L 99.262 14.648 L 98.751 15.792 L 98.592 16.146 M 99.35 12.749 L 98.14 15.454 L 95.45 15.897 L 97.392 18.012 L 96.913 20.986 L 99.35 19.593 L 101.788 20.986 L 101.308 18.012 L 103.249 15.897 L 100.56 15.454 L 99.35 12.749 Z M 97.943 19.411 L 98.161 18.156 L 98.228 17.71 L 97.938 17.393 L 97.117 16.499 L 98.254 16.311 L 98.657 16.245 L 98.838 15.84 L 99.35 14.696 L 99.862 15.84 L 100.043 16.245 L 100.446 16.311 L 101.583 16.499 L 100.762 17.393 L 100.471 17.71 L 100.539 18.156 L 100.757 19.411 L 99.711 18.824 L 99.35 18.615 L 98.989 18.824 L 97.943 19.411 Z" style=""/>
  <path fill="#ffeea3" d="M 88.781 19.77 L 86.409 21.126 L 86.875 18.231 L 84.985 16.172 L 87.603 15.741 L 88.781 13.109 L 89.959 15.742 L 92.577 16.172 L 90.687 18.231 L 91.153 21.126 L 88.781 19.77 Z M 89.119 19.11 L 90.255 19.747 L 90.018 18.384 L 89.955 17.967 L 91.118 16.699 L 89.506 16.434 L 88.781 14.812 L 88.056 16.434 L 86.444 16.699 L 87.607 17.966 L 87.544 18.385 L 87.307 19.747 L 88.442 19.111 L 88.781 18.914 L 89.119 19.11 Z" style=""/>
  <path fill="#ba9b48" d="M 88.781 13.23 L 89.904 15.74 L 89.926 15.791 L 89.976 15.799 L 92.472 16.21 L 90.671 18.173 L 90.634 18.213 L 90.643 18.269 L 91.088 21.028 L 88.825 19.734 L 88.781 19.709 L 88.736 19.734 L 86.474 21.027 L 86.919 18.269 L 86.928 18.212 L 86.891 18.172 L 85.09 16.21 L 87.585 15.799 L 87.635 15.791 L 87.657 15.74 L 88.781 13.23 M 88.023 16.384 L 87.671 16.442 L 86.533 16.629 L 86.339 16.661 L 86.48 16.814 L 87.3 17.708 L 87.555 17.985 L 87.496 18.373 L 87.278 19.628 L 87.24 19.845 L 87.418 19.746 L 88.465 19.158 L 88.781 18.975 L 89.098 19.159 L 90.144 19.746 L 90.322 19.845 L 90.284 19.628 L 90.067 18.376 L 90.007 17.986 L 90.262 17.709 L 91.083 16.814 L 91.223 16.661 L 91.028 16.629 L 89.891 16.442 L 89.538 16.384 L 89.38 16.03 L 88.868 14.886 L 88.781 14.69 L 88.693 14.886 L 88.182 16.03 L 88.023 16.384 M 88.781 12.987 L 87.571 15.692 L 84.881 16.135 L 86.823 18.25 L 86.344 21.224 L 88.781 19.831 L 91.219 21.224 L 90.739 18.25 L 92.68 16.135 L 89.991 15.692 L 88.781 12.987 Z M 87.374 19.649 L 87.592 18.394 L 87.659 17.948 L 87.369 17.631 L 86.548 16.737 L 87.685 16.549 L 88.088 16.483 L 88.269 16.078 L 88.781 14.934 L 89.293 16.078 L 89.474 16.483 L 89.877 16.549 L 91.014 16.737 L 90.193 17.631 L 89.902 17.948 L 89.97 18.394 L 90.188 19.649 L 89.142 19.062 L 88.781 18.853 L 88.42 19.062 L 87.374 19.649 Z" style=""/>
</svg>